<?xml version="1.0" encoding="utf-8"?>
<!-- Generator: Adobe Illustrator 25.2.0, SVG Export Plug-In . SVG Version: 6.00 Build 0)  -->
<svg version="1.1" id="Capa_1" xmlns="http://www.w3.org/2000/svg" xmlns:xlink="http://www.w3.org/1999/xlink" x="0px" y="0px"
	 viewBox="0 0 400 400" style="enable-background:new 0 0 400 400;" xml:space="preserve">
<style type="text/css">
	.st0{fill:#ED7524;}
</style>
<path class="st0" d="M298,216.4l-49-68.2c-3.4-4.7-8.9-7.5-14.7-7.5H226v-11.4c0-4.6-3.7-8.4-8.4-8.4h-3.9L203,150
	c-0.5,1.3-1.7,2.1-3,2.1c-1.4,0-2.6-0.8-3-2.1l-10.7-29h-3.9c-4.6,0-8.4,3.7-8.4,8.4v11.4h-8.2c-5.8,0-11.3,2.8-14.7,7.5l-49,68.2
	c-2.5,3.5-1.9,8.4,1.4,11.3l9,7.6c3.3,2.8,8.2,2.6,11.3-0.5l26.4-26.4l-3.7,39.4c-0.2,2.3,0.6,4.7,2.1,6.4c1.1,1.2,2.6,2.1,4.2,2.5
	c-2.8,1.4-4.6,4.2-4.6,7.5v6.5c0,4.6,3.7,8.4,8.4,8.4h87c4.6,0,8.4-3.7,8.4-8.4v-6.5c0-3.3-1.9-6.1-4.6-7.5c1.6-0.4,3.1-1.2,4.2-2.5
	c1.6-1.7,2.4-4.1,2.1-6.4l-3.7-39.4l26.4,26.4c3.1,3.1,8,3.3,11.3,0.5l9-7.6C299.9,224.8,300.5,219.9,298,216.4z M182.6,222.5
	l-12,20.5c-1,1.6-2.7,2.5-4.4,2.5c-0.9,0-1.8-0.2-2.6-0.7c-2.5-1.4-3.3-4.6-1.8-7l12-20.5c1.4-2.5,4.6-3.3,7-1.8
	C183.3,216.9,184.1,220.1,182.6,222.5z M236.4,244.9c-0.8,0.5-1.7,0.7-2.6,0.7c-1.8,0-3.5-0.9-4.4-2.5l-12-20.5
	c-1.4-2.5-0.6-5.6,1.8-7c2.5-1.4,5.6-0.6,7,1.8l12,20.5C239.7,240.3,238.8,243.4,236.4,244.9z"/>
</svg>
