<?xml version="1.0" encoding="utf-8"?>
<!-- Generator: Adobe Illustrator 25.2.0, SVG Export Plug-In . SVG Version: 6.00 Build 0)  -->
<svg version="1.1" id="Capa_1" xmlns="http://www.w3.org/2000/svg" xmlns:xlink="http://www.w3.org/1999/xlink" x="0px" y="0px"
	 viewBox="0 0 240 240" style="enable-background:new 0 0 240 240;" xml:space="preserve">
<style type="text/css">
	.st0{fill:#ED7524;}
</style>
<g>
	<path class="st0" d="M146,83.8l0-2c0-1.9-0.1-3.8-0.2-5.7h-6.7C140,79.6,142.7,82.5,146,83.8z"/>
	<path class="st0" d="M145.1,70.4c-0.2-1-0.4-2-0.6-3l-0.3-1.4c-0.3-1.2-1.4-2.1-2.7-2.1H98.6c-1.3,0-2.4,0.9-2.7,2.1l-0.3,1.4
		c-0.2,1-0.4,2-0.6,3C94.9,70.4,145.1,70.4,145.1,70.4z"/>
	<path class="st0" d="M133.3,76.1h-10.5v10.2c0,1.6-1.3,2.8-2.8,2.8c-1.6,0-2.8-1.3-2.8-2.8V76.1h-10.5c-1.1,6.6-6.2,12-12.6,13.6
		l0.7,83.6c0,1.5,1.2,2.7,2.8,2.7h14.7c1.5,0,2.7-1.1,2.8-2.6l4.4-76.7c0-0.4,0.3-0.7,0.7-0.7c0.4,0,0.7,0.3,0.7,0.7l4.4,76.7
		c0.1,1.5,1.3,2.6,2.8,2.6h14.7c1.5,0,2.8-1.2,2.8-2.7l0.7-83.6C139.5,88.1,134.5,82.7,133.3,76.1z"/>
	<path class="st0" d="M100.9,76.1h-6.7c-0.2,1.9-0.2,3.8-0.2,5.7l0,2C97.3,82.5,100,79.6,100.9,76.1z"/>
</g>
</svg>
