<?xml version="1.0" encoding="utf-8"?>
<!-- Generator: Adobe Illustrator 25.2.0, SVG Export Plug-In . SVG Version: 6.00 Build 0)  -->
<svg version="1.1" id="Capa_1" xmlns="http://www.w3.org/2000/svg" xmlns:xlink="http://www.w3.org/1999/xlink" x="0px" y="0px"
	 viewBox="0 0 400 400" style="enable-background:new 0 0 400 400;" xml:space="preserve">
<style type="text/css">
	.st0{fill:#ED7524;}
</style>
<g>
	<path class="st0" d="M194.9,116.7h-16.4c-2.1,0-3.9,1.7-3.9,3.9v17.1c-0.3-0.1-0.6-0.1-0.9-0.1h-8c-5.8,0-11.3,2.8-14.7,7.5
		l-49,68.2c-2.5,3.5-1.9,8.4,1.4,11.3l9,7.6c3.3,2.8,8.2,2.6,11.3-0.5l26.4-26.4l-3.7,68.9c-0.2,2.3,0.6,4.7,2.1,6.4
		c1.6,1.7,3.8,2.7,6.2,2.7h40.3L194.9,116.7z"/>
	<path class="st0" d="M296.6,224.5c3.3-2.8,3.9-7.7,1.4-11.3l-49-68.2c-3.4-4.7-8.9-7.5-14.7-7.5h-8c-0.3,0-0.6,0.1-0.9,0.1v-16
		c0-2.7-2.2-4.9-4.9-4.9h-15.4l0.1,166.7h40.1c2.3,0,4.6-1,6.2-2.7c1.6-1.7,2.4-4.1,2.1-6.4l-3.7-68.9l26.4,26.4
		c3.1,3.1,8,3.3,11.3,0.5L296.6,224.5z"/>
</g>
</svg>
