<?xml version="1.0" encoding="utf-8"?>
<!-- Generator: Adobe Illustrator 25.2.0, SVG Export Plug-In . SVG Version: 6.00 Build 0)  -->
<svg version="1.1" id="Capa_1" xmlns="http://www.w3.org/2000/svg" xmlns:xlink="http://www.w3.org/1999/xlink" x="0px" y="0px"
	 viewBox="0 0 400 400" style="enable-background:new 0 0 400 400;" xml:space="preserve">
<style type="text/css">
	.st0{fill:#ED7524;}
</style>
<g>
	<path class="st0" d="M200,130.8c8.5,0,15.9-5.4,18.6-13.5c-5.1,1.4-11.5,2.2-18.6,2.2c-7.1,0-13.5-0.8-18.6-2.2
		C184.1,125.4,191.5,130.8,200,130.8z"/>
	<path class="st0" d="M298.3,140.7c-0.4-1.1-1.2-2.1-2.3-2.6l-37.6-17.4c-8-2.7-16.1-4.8-24.4-6.4c-0.3-0.1-0.6-0.1-0.9-0.1
		c-2,0-3.9,1.4-4.3,3.5c-3,13.2-14.7,23.1-28.9,23.1c-14.1,0-25.9-9.9-28.9-23.1c-0.5-2.1-2.3-3.5-4.3-3.5c-0.3,0-0.6,0-0.9,0.1
		c-8.2,1.6-16.4,3.7-24.4,6.4L104,138.1c-1.1,0.5-2,1.4-2.3,2.6c-0.4,1.2-0.3,2.4,0.2,3.5l16.3,32.2c0.8,1.5,2.3,2.4,4,2.4
		c0.4,0,0.9-0.1,1.3-0.2l18.1-5.4v108.1c0,2.5,2,4.5,4.5,4.5h107.9c2.5,0,4.5-2,4.5-4.5V173.2l18.1,5.4c0.4,0.1,0.9,0.2,1.3,0.2
		c1.6,0,3.2-0.9,4-2.4l16.3-32.2C298.7,143.1,298.7,141.8,298.3,140.7z"/>
</g>
</svg>
