<?xml version="1.0" encoding="utf-8"?>
<!-- Generator: Adobe Illustrator 25.2.0, SVG Export Plug-In . SVG Version: 6.00 Build 0)  -->
<svg version="1.1" id="Capa_1" xmlns="http://www.w3.org/2000/svg" xmlns:xlink="http://www.w3.org/1999/xlink" x="0px" y="0px"
	 viewBox="0 0 400 400" style="enable-background:new 0 0 400 400;" xml:space="preserve">
<style type="text/css">
	.st0{fill:#ED7524;}
</style>
<path class="st0" d="M284.8,225.1c-0.8-2.8-1.7-5.6-2.5-8.3c-0.5-1.6-2.2-2.5-3.8-2c-1.3,0.4-0.4,0.1-1.7,0.5l-0.2-0.7
	c-3.1-11-12.6-19-24-20.1c-8.5-0.8-19.8-3.1-33.9-8.6c-1.7-0.7-3.7-1.7-5.8-2.9l-5.2,8.2c-0.8,1.3-2.3,2-3.7,2
	c-0.8,0-1.6-0.2-2.3-0.7c-2-1.3-2.6-4-1.3-6.1l5.2-8.2c-2.4-1.7-4.9-3.4-7.2-5.2l-10.5,14.4c-0.9,1.2-2.2,1.8-3.5,1.8
	c-0.9,0-1.8-0.3-2.6-0.8c-2-1.4-2.4-4.2-0.9-6.1l10.6-14.5c-2-1.6-3.7-3-5.1-4.1c-1.8-1.4-4.4-1.3-5.9,0.4
	c-6.1,6.6-22.7,21.2-50.4,21.8c-2.7,0.1-5.3-0.1-7.9-0.3c-0.8-0.1-1.6,0.2-2.2,0.8c-0.6,0.6-0.9,1.3-0.9,2.2v33.9h-1.1
	c-1.5,0-2.7,1.2-2.7,2.7v9.4c0,1.5,1.2,2.7,2.7,2.7c0,0,71-0.2,71.8-0.2c37.4,0,62.2,0.9,93.1-8.1c0.8-0.2,1.4-0.8,1.8-1.5
	C284.9,226.7,285,225.9,284.8,225.1z"/>
</svg>
